<?xml version="1.0" encoding="UTF-8" standalone="no" ?>
<!DOCTYPE svg PUBLIC "-//W3C//DTD SVG 1.1//EN" "http://www.w3.org/Graphics/SVG/1.1/DTD/svg11.dtd">
<svg xmlns="http://www.w3.org/2000/svg" xmlns:xlink="http://www.w3.org/1999/xlink" version="1.1" width="143.9825" height="162.62839999999997" xml:space="preserve">
<desc>Created with Fabric.js 1.6.0-rc.1</desc>
<defs></defs>
<g style="stroke: none; stroke-width: 1; stroke-dasharray: none; stroke-linecap: butt; stroke-linejoin: miter; stroke-miterlimit: 10; fill: none; fill-rule: nonzero; opacity: 1;" transform="translate(9.999999999999993 10) scale(3.05 3.05)" >
  <polygon points="115.47,61.01 108.3,79.39 110.95,80.42 119.13,75.59 118.28,72.06 133.79,68.34 133.85,68.19 " style="stroke: none; stroke-width: 1; stroke-dasharray: none; stroke-linecap: butt; stroke-linejoin: miter; stroke-miterlimit: 10; fill: #e39d07; fill-rule: nonzero; opacity: 1;" transform="  matrix(1 0 0 1 -105.175 -61.013) "/>
  <polygon points="139.68,66.92 133.79,68.34 129.6,79.06 143.65,83.7 141.88,89.03 144.82,88.32 " style="stroke: none; stroke-width: 1; stroke-dasharray: none; stroke-linecap: butt; stroke-linejoin: miter; stroke-miterlimit: 10; fill: #ff9345; fill-rule: nonzero; opacity: 1;" transform="  matrix(1 0 0 1 -105.175 -61.013) "/>
  <polygon points="129.6,79.06 133.79,68.34 118.28,72.06 119.13,75.59 124.54,72.39 128.21,78.6 " style="stroke: none; stroke-width: 1; stroke-dasharray: none; stroke-linecap: butt; stroke-linejoin: miter; stroke-miterlimit: 10; fill: #de4e4e; fill-rule: nonzero; opacity: 1;" transform="  matrix(1 0 0 1 -105.175 -61.013) "/>
  <polygon points="105.17,83.83 116.61,103.2 124.93,98.29 118.73,96.24 121.83,86.84 121.26,84.44 110.95,80.42 " style="stroke: none; stroke-width: 1; stroke-dasharray: none; stroke-linecap: butt; stroke-linejoin: miter; stroke-miterlimit: 10; fill: #ff9345; fill-rule: nonzero; opacity: 1;" transform="  matrix(1 0 0 1 -105.175 -61.013) "/>
  <polygon points="119.13,75.59 110.95,80.42 121.26,84.44 " style="stroke: none; stroke-width: 1; stroke-dasharray: none; stroke-linecap: butt; stroke-linejoin: miter; stroke-miterlimit: 10; fill: #de4e4e; fill-rule: nonzero; opacity: 1;" transform="  matrix(1 0 0 1 -105.175 -61.013) "/>
  <polygon points="121.26,84.44 121.83,86.84 122.47,84.92 " style="stroke: none; stroke-width: 1; stroke-dasharray: none; stroke-linecap: butt; stroke-linejoin: miter; stroke-miterlimit: 10; fill: #de4e4e; fill-rule: nonzero; opacity: 1;" transform="  matrix(1 0 0 1 -105.175 -61.013) "/>
  <polygon points="119.13,75.59 121.26,84.44 122.47,84.92 124.92,77.51 128.21,78.6 124.54,72.39 " style="stroke: none; stroke-width: 1; stroke-dasharray: none; stroke-linecap: butt; stroke-linejoin: miter; stroke-miterlimit: 10; fill: #ff9345; fill-rule: nonzero; opacity: 1;" transform="  matrix(1 0 0 1 -105.175 -61.013) "/>
  <polygon points="124.93,98.29 137.46,102.43 141.88,89.03 135.3,90.61 135.98,91.76 " style="stroke: none; stroke-width: 1; stroke-dasharray: none; stroke-linecap: butt; stroke-linejoin: miter; stroke-miterlimit: 10; fill: #de4e4e; fill-rule: nonzero; opacity: 1;" transform="  matrix(1 0 0 1 -105.175 -61.013) "/>
  <polygon points="141.88,89.03 143.65,83.7 129.6,79.06 129.15,80.2 135.3,90.61 " style="stroke: none; stroke-width: 1; stroke-dasharray: none; stroke-linecap: butt; stroke-linejoin: miter; stroke-miterlimit: 10; fill: #e39d07; fill-rule: nonzero; opacity: 1;" transform="  matrix(1 0 0 1 -105.175 -61.013) "/>
  <polygon points="129.6,79.06 128.21,78.6 129.15,80.2 " style="stroke: none; stroke-width: 1; stroke-dasharray: none; stroke-linecap: butt; stroke-linejoin: miter; stroke-miterlimit: 10; fill: #de4e4e; fill-rule: nonzero; opacity: 1;" transform="  matrix(1 0 0 1 -105.175 -61.013) "/>
  <polygon points="118.73,96.24 124.93,98.29 135.98,91.76 135.3,90.61 123.42,93.47 121.83,86.84 " style="stroke: none; stroke-width: 1; stroke-dasharray: none; stroke-linecap: butt; stroke-linejoin: miter; stroke-miterlimit: 10; fill: #e39d07; fill-rule: nonzero; opacity: 1;" transform="  matrix(1 0 0 1 -105.175 -61.013) "/>
  <polygon points="123.42,93.47 135.3,90.61 129.15,80.2 126.67,86.56 122.47,84.92 121.83,86.84 " style="stroke: none; stroke-width: 1; stroke-dasharray: none; stroke-linecap: butt; stroke-linejoin: miter; stroke-miterlimit: 10; fill: #de4e4e; fill-rule: nonzero; opacity: 1;" transform="  matrix(1 0 0 1 -105.175 -61.013) "/>
  <polygon points="128.21,78.6 124.92,77.51 122.47,84.92 126.67,86.56 129.15,80.2 " style="stroke: none; stroke-width: 1; stroke-dasharray: none; stroke-linecap: butt; stroke-linejoin: miter; stroke-miterlimit: 10; fill: #e39d07; fill-rule: nonzero; opacity: 1;" transform="  matrix(1 0 0 1 -105.175 -61.013) "/>
  <path d="m 120.546 72.11 l 0 22.376 L 136.29 83.298 L 120.546 72.11 Z m 2.836 6.257 l 6.939 4.932 l -6.939 4.932 l 0 -9.864 z" style="stroke: none; stroke-width: 1; stroke-dasharray: none; stroke-linecap: butt; stroke-linejoin: miter; stroke-miterlimit: 10; fill: #ffffff; fill-rule: nonzero; opacity: 0;" transform=" matrix(1 0 0 1 -105.175 -61.013) " stroke-linecap="round" />
</g>
  <g transform="translate(77.52 89.62) scale(4.24 2.45)">
   <text font-family="Diogenes" font-size="40" font-weight="normal" style="stroke: none; stroke-width: 1; stroke-dasharray: none; stroke-linecap: butt; stroke-linejoin: miter; stroke-miterlimit: 10; fill: #ffffff; fill-rule: nonzero; opacity: 1;" ><tspan x="-8.8" y="8.98" style="stroke: none; stroke-width: 0; stroke-dasharray: none; stroke-linecap: butt; stroke-linejoin: miter; stroke-miterlimit: 4; fill: #ffffff; fill-rule: ; opacity: 1;">P</tspan></text>
 </g>
</svg>